<svg xmlns="http://www.w3.org/2000/svg" viewBox="0 0 1200 900">
  <!-- Techtronic Industries Homepage Mockup -->
  <rect width="1200" height="900" fill="#F5F5F5"/>

  <!-- Header -->
  <rect width="1200" height="70" fill="#D32F2F"/>
  <text x="40" y="45" font-family="Arial" font-size="22" fill="#FFFFFF" font-weight="900">TECHTRONIC INDUSTRIES</text>
  <text x="1100" y="45" font-family="Arial" font-size="13" fill="#FFFFFF" text-anchor="end">Brands | Innovation | Sustainability</text>

  <!-- Hero Section -->
  <rect y="70" width="1200" height="350" fill="#1A1A1A"/>
  <text x="600" y="200" font-family="Arial" font-size="46" fill="#FFFFFF" text-anchor="middle" font-weight="bold">Powering the World</text>
  <text x="600" y="250" font-family="Arial" font-size="24" fill="#CCCCCC" text-anchor="middle">Innovative Power Tools & Equipment</text>
  <rect x="500" y="290" width="200" height="50" fill="#D32F2F" rx="5"/>
  <text x="600" y="322" font-family="Arial" font-size="16" fill="#FFFFFF" text-anchor="middle" font-weight="bold">Explore Brands</text>

  <!-- Brand Logos Section -->
  <text x="600" y="480" font-family="Arial" font-size="28" fill="#333333" text-anchor="middle" font-weight="bold">Our Global Brands</text>

  <rect x="100" y="520" width="220" height="200" fill="#FFFFFF" rx="8"/>
  <rect x="120" y="550" width="180" height="80" fill="#FF0000"/>
  <text x="210" y="600" font-family="Arial" font-size="28" fill="#FFFFFF" text-anchor="middle" font-weight="bold">MILWAUKEE</text>

  <rect x="370" y="520" width="220" height="200" fill="#FFFFFF" rx="8"/>
  <rect x="390" y="550" width="180" height="80" fill="#FFD700"/>
  <text x="480" y="600" font-family="Arial" font-size="28" fill="#333333" text-anchor="middle" font-weight="bold">RYOBI</text>

  <rect x="640" y="520" width="220" height="200" fill="#FFFFFF" rx="8"/>
  <rect x="660" y="550" width="180" height="80" fill="#006400"/>
  <text x="750" y="600" font-family="Arial" font-size="24" fill="#FFFFFF" text-anchor="middle" font-weight="bold">RIDGID</text>

  <rect x="910" y="520" width="220" height="200" fill="#FFFFFF" rx="8"/>
  <rect x="930" y="550" width="180" height="80" fill="#1E90FF"/>
  <text x="1020" y="600" font-family="Arial" font-size="26" fill="#FFFFFF" text-anchor="middle" font-weight="bold">AEG</text>

  <!-- Stats -->
  <text x="600" y="810" font-family="Arial" font-size="20" fill="#666666" text-anchor="middle">10+ Brands | 15+ Countries | Industry Leading Innovation</text>
</svg>
